<svg t="1681626212102" class="icon" viewBox="0 0 1024 1024" version="1.1" xmlns="http://www.w3.org/2000/svg" p-id="3062" width="200" height="200"><path d="M192.833554 703.876571V576.812571S7.130697 577.469714 0.006126 377.428571c0 0-2.308571-96.884571 92.421714-158.177142 0 0 84.573714-55.014857 188.016-5.084572 0 0 51.453714-145.36 232.010286-149.985143 0 0 150.541714-11.690286 233.661714 148.926857 0 0 181.88-92.790857 271.136 115.249143 18.405714 51.182857 11.609143 237.954286-184.12 247.062857v128.326858H192.834697v0.129142z m0 65.317715h639.374857v136.642285s-7.192 48.872-55.677714 54.024H247.849554s-45.849143-0.990857-55.016-57.058285V769.194286z m0 0" fill="#008F7A" p-id="3063"></path></svg>